# xmcd
#
# Track frame offsets:
#	150
#	14680
#	27820
#	41437
#	54840
#	67982
#	80307
#	94952
#	107462
#	124685
#	138587
#	150937
#	162525
#	179635
#	199720
#	213095
#	223712
#	238560
#	255422
#	265342
#	277602
#	291815
#	310250
#	324657
#
# Disc length: 4546 seconds
#
# Revision: 0
# Processed by: cddbd v1.5.2PL0 Copyright (c) Steve Scherf et al.
# Submitted via: dBpowerAMP V4.0
#
DISCID=4a11c018
DTITLE=Barbara Ray - Crying in the Rain
DYEAR=1996
DGENRE=Country
TTITLE0=Crying in the rain
TTITLE1=Wild side of life
TTITLE2=Happy birthday Baby
TTITLE3=I'm gonna be a country girl again
TTITLE4=Serenade of the bells
TTITLE5=Jambalaya
TTITLE6=The last one to touch me
TTITLE7=The greatest Christmas gift (with Bobby Angel)
TTITLE8=I just came home to count the memories
TTITLE9=Happiness train
TTITLE10=Joey
TTITLE11=Good girl's gonna go bad
TTITLE12=Sunday morning coming down
TTITLE13=Scottish trilogy
TTITLE14=In the middle of the night
TTITLE15=Mama
TTITLE16=Depend on me
TTITLE17=A butterfly for Bucky
TTITLE18=Listen spot
TTITLE19=Chicken every Sunday
TTITLE20=I'll get over you
TTITLE21=You're my sunshine, you're my life
TTITLE22=Let true love begin
TTITLE23=Have a good time
EXTD=
EXTT0=
EXTT1=
EXTT2=
EXTT3=
EXTT4=
EXTT5=
EXTT6=
EXTT7=
EXTT8=
EXTT9=
EXTT10=
EXTT11=
EXTT12=
EXTT13=
EXTT14=
EXTT15=
EXTT16=
EXTT17=
EXTT18=
EXTT19=
EXTT20=
EXTT21=
EXTT22=
EXTT23=
PLAYORDER=
